# xmcd CD database file
#
# Track frame offsets:
#	150
#	19535
#	38015
#	57263
#	75133
#	86653
#	97678
#	115028
#	129915
#	152295
#	168453
#	182000
#
# Disc length: 2670 seconds
#
# Revision: 1
# Processed by: cddbd v1.5PL3 Copyright (c) Steve Scherf et al.
# Submitted via: CDex 1.51
#
DISCID=730a6c0c
DTITLE=Juanita Williams - Introducing Juanita Williams
DYEAR=1994
DGENRE=Blues
TTITLE0=Another Man's Place
TTITLE1=Crazy 'bout You, Baby
TTITLE2=I'm Still in Love with You
TTITLE3=One More Heartache
TTITLE4=It's Too Late, He's Gone
TTITLE5=That will Never Do
TTITLE6=The Same Old Blues
TTITLE7=Grounded
TTITLE8=If You Go
TTITLE9=You haven't Hurt Me
TTITLE10=Two Steps from the Blues
TTITLE11=I'm on Your Tail
EXTD=YEAR: 1994
EXTT0=
EXTT1=
EXTT2=
EXTT3=
EXTT4=
EXTT5=
EXTT6=
EXTT7=
EXTT8=
EXTT9=
EXTT10=
EXTT11=
PLAYORDER=
